<?xml version="1.0" encoding="UTF-8"?>
<svg id="Layer_2" data-name="Layer 2" xmlns="http://www.w3.org/2000/svg" xmlns:xlink="http://www.w3.org/1999/xlink" viewBox="0 0 708.69 277.11">
  <defs>
    <style>
      .cls-1 {
        fill: url(#linear-gradient-2);
      }

      .cls-2 {
        fill: url(#linear-gradient-6);
      }

      .cls-3 {
        fill: url(#linear-gradient-11);
      }

      .cls-4 {
        fill: url(#linear-gradient-10);
      }

      .cls-5 {
        fill: url(#radial-gradient);
      }

      .cls-6 {
        fill: url(#linear-gradient-5);
      }

      .cls-7 {
        fill: url(#linear-gradient-7);
      }

      .cls-8 {
        fill: url(#linear-gradient-9);
      }

      .cls-9 {
        fill: url(#linear-gradient-3);
      }

      .cls-10 {
        fill: url(#linear-gradient);
      }

      .cls-11 {
        fill: url(#linear-gradient-4);
      }

      .cls-12 {
        fill: url(#linear-gradient-8);
      }

      .cls-13 {
        fill: url(#linear-gradient-12);
      }
    </style>
    <radialGradient id="radial-gradient" cx="16.8" cy="236.25" fx="16.8" fy="236.25" r="281.12" gradientUnits="userSpaceOnUse">
      <stop offset="0" stop-color="#00021c"/>
      <stop offset="1" stop-color="#014565"/>
    </radialGradient>
    <linearGradient id="linear-gradient" x1="280.06" y1="228.15" x2="283.16" y2="101.18" gradientUnits="userSpaceOnUse">
      <stop offset="0" stop-color="#00021c"/>
      <stop offset="1" stop-color="#014565"/>
    </linearGradient>
    <linearGradient id="linear-gradient-2" x1="369.54" y1="230.33" x2="372.63" y2="103.37" xlink:href="#linear-gradient"/>
    <linearGradient id="linear-gradient-3" x1="444.76" y1="232.18" x2="447.86" y2="105.2" xlink:href="#linear-gradient"/>
    <linearGradient id="linear-gradient-4" x1="521.73" y1="234.06" x2="524.83" y2="107.08" xlink:href="#linear-gradient"/>
    <linearGradient id="linear-gradient-5" x1="597.83" y1="235.9" x2="600.93" y2="108.93" xlink:href="#linear-gradient"/>
    <linearGradient id="linear-gradient-6" x1="668.91" y1="237.63" x2="672.01" y2="110.66" xlink:href="#linear-gradient"/>
    <linearGradient id="linear-gradient-7" x1="254.61" y1="227.53" x2="257.71" y2="100.56" xlink:href="#linear-gradient"/>
    <linearGradient id="linear-gradient-8" x1="319.75" y1="229.12" x2="322.84" y2="102.15" xlink:href="#linear-gradient"/>
    <linearGradient id="linear-gradient-9" x1="385.8" y1="230.73" x2="388.9" y2="103.76" xlink:href="#linear-gradient"/>
    <linearGradient id="linear-gradient-10" x1="441.53" y1="232.09" x2="444.63" y2="105.12" xlink:href="#linear-gradient"/>
    <linearGradient id="linear-gradient-11" x1="494.52" y1="233.38" x2="497.62" y2="106.41" xlink:href="#linear-gradient"/>
    <linearGradient id="linear-gradient-12" x1="556.97" y1="234.89" x2="560.06" y2="107.94" xlink:href="#linear-gradient"/>
  </defs>
  <g id="Layer_1-2" data-name="Layer 1">
    <path class="cls-5" d="M27.37,244.73C9.12,223.14,0,193.52,0,155.88c0-29.32,4.79-55.77,14.38-79.32,9.58-23.55,24.01-42.2,43.3-55.94C76.95,6.87,100.33,0,127.82,0c34.17,0,58.77,9.24,73.78,27.71,15.01,18.48,22.52,43.19,22.52,74.13,0,25.87-3.58,46.88-10.74,63.04-7.16,16.17-15.88,27.77-26.15,34.81-10.28,7.05-20.5,10.56-30.66,10.56-18.71,0-28.75-7.62-30.14-22.86h-.69c-3.46,7.16-7.85,12.42-13.16,15.76-5.31,3.35-11.78,5.02-19.4,5.02-10.39,0-18.42-3.64-24.07-10.91-5.66-7.27-8.49-17.49-8.49-30.66,0-2.77,.23-6.69,.69-11.78l3.81-34.99c3.92-34.17,17.78-51.27,41.57-51.27,14.32,0,23.78,7.05,28.4,21.13h.69l3.12-19.74h32.21l-10.05,96.64-.35,5.54c0,4.39,2.31,6.58,6.93,6.58,9.01,0,15.87-7.91,20.61-23.73,4.73-15.81,7.1-33.31,7.1-52.48,0-22.63-5.66-40.47-16.97-53.52-11.32-13.04-28.64-19.57-51.96-19.57-30.48,0-53.75,11.32-69.8,33.95-16.05,22.63-24.07,54.04-24.07,94.22,0,28.64,6.75,50.87,20.26,66.68,13.51,15.82,33.65,23.73,60.45,23.73,13.86,0,26.38-1.73,37.58-5.2,11.2-3.46,22.57-9.58,34.12-18.36l-2.77,33.25c-10.86,7.16-21.94,12.18-33.25,15.07-11.32,2.88-23.9,4.33-37.76,4.33-37.64,0-65.59-10.8-83.83-32.39Zm101.84-90.58l3.46-32.91,.35-4.16c0-5.08-1.39-8.89-4.16-11.43-2.77-2.54-6.47-3.81-11.08-3.81-5.78,0-10.28,1.68-13.51,5.02-3.24,3.35-5.31,8.95-6.23,16.8l-3.12,29.44-.35,5.2c0,6.01,1.33,10.45,3.98,13.34,2.65,2.89,6.41,4.33,11.26,4.33,11.31,0,17.78-7.27,19.4-21.82Z"/>
    <g>
      <path class="cls-10" d="M303.12,133.63c2.81,0,6.24,.04,10.3,.12l3.74-9.25,21.52-50.51c-4.6,.08-8.3,.12-11.11,.12-3.28,0-6.82-.04-10.64-.12l-9.94,28.62c-.94,2.69-1.52,4.41-1.75,5.15l-.94,2.93-.76-3.92-8.1-32.77c-3.16,.08-6.83,.12-11,.12-3.94,0-7.8-.04-11.59-.12l-8.41,24.64-3.85,12.06-1.41-6.03-8.32-30.67c-3.28,.08-6.74,.12-10.37,.12-3.87,0-7.71-.04-11.54-.12,4.57,12.37,11.17,32.29,19.8,59.76,4.76-.08,8.6-.12,11.53-.12,2.54,0,5.85,.04,9.95,.12,2.65-6.87,6.87-18.67,12.65-35.41,1.95,9.09,3.31,15.26,4.09,18.49l4.15,16.91c4.92-.08,8.92-.12,12-.12Z"/>
      <path class="cls-1" d="M404.36,106.06c.5-2.73,.76-5.21,.76-7.43,0-3.75-.6-7.24-1.79-10.48-1.19-3.24-3.19-6.14-6-8.72-2.81-2.57-6.23-4.38-10.27-5.41-4.04-1.04-8.28-1.55-12.73-1.55s-8.48,.56-12.58,1.69-7.72,3.04-10.86,5.73c-3.14,2.69-5.7,6.42-7.69,11.2-1.99,4.77-2.99,9.66-2.99,14.65,0,3.54,.5,6.99,1.49,10.35,1,3.35,2.45,6.24,4.36,8.68,1.92,2.44,4.29,4.47,7.12,6.11,2.82,1.64,6.19,2.78,10.09,3.42,3.9,.64,8.17,.97,12.82,.97,3.16,0,6.28-.15,9.36-.44,3.08-.3,6.89-.89,11.42-1.79,1.44-8.97,2.41-14.63,2.92-16.97-4.84,1.44-8.9,2.47-12.2,3.07-3.3,.61-6.23,.91-8.81,.91-4.33,0-8-.99-11-2.97-3.01-1.99-4.51-5.07-4.51-9.27,0-.51,.02-1.07,.06-1.69l41.03-.06Zm-39.74-12.55c.27-.88,.7-1.79,1.28-2.72,.59-.94,1.32-1.77,2.2-2.49,.88-.72,1.86-1.27,2.96-1.64,1.09-.37,2.22-.56,3.39-.56,1.68,0,3.19,.33,4.54,1,1.34,.66,2.37,1.72,3.1,3.16,.72,1.44,1.08,3.18,1.08,5.21,0,.47-.02,1.03-.06,1.69h-19.31c.27-1.56,.54-2.78,.82-3.65Z"/>
      <path class="cls-9" d="M478.54,84.87c-2.67-4.48-6.14-7.67-10.41-9.57-4.28-1.89-9.41-2.83-15.42-2.83-1.87,0-3.77,.09-5.68,.29-1.91,.19-4.64,.58-8.19,1.17,.39-7.3,1.01-13.99,1.86-20.08-3.71,.08-7.49,.12-11.36,.12s-8.17-.04-12.7-.12c0,8.28-.41,20.59-1.23,36.94-.82,16.34-1.77,30.66-2.86,42.95,5.47-.07,9.36-.11,11.66-.11,2.82,0,6.31,.04,10.49,.11l.21-7.49c1.37,1.6,2.58,2.87,3.63,3.81,1.05,.93,2.36,1.82,3.92,2.66,1.56,.84,3.3,1.47,5.21,1.9,1.91,.43,3.92,.65,6.03,.65,5.66,0,10.61-1.32,14.86-3.95,4.25-2.64,7.65-6.68,10.18-12.12,2.54-5.44,3.81-11.4,3.81-17.88s-1.34-11.96-4.01-16.45Zm-20.84,25.61c-.91,2.48-2.25,4.36-4.01,5.65-1.75,1.28-3.8,1.93-6.14,1.93s-4.31-.65-6.12-1.93c-1.82-1.29-3.05-3.01-3.69-5.15-.64-2.15-.97-5.06-.97-8.72,0-1.45,.14-5.41,.43-11.88,3.44-.86,6.45-1.29,9.03-1.29,4.15,0,7.32,1.24,9.53,3.71,2.21,2.48,3.32,5.77,3.32,9.87,0,2.73-.46,5.33-1.38,7.81Z"/>
      <path class="cls-11" d="M549.46,53.97c-3.04,0-6.96-.04-11.75-.12-.12,8.35-.33,14.85-.64,19.49-4.33-.58-8.12-.87-11.36-.87-4.88,0-9.42,.59-13.62,1.78-4.2,1.19-7.96,3.23-11.3,6.12-3.34,2.89-6.05,6.84-8.11,11.88-2.07,5.03-3.11,10.18-3.11,15.45,0,3.71,.57,7.29,1.7,10.74s2.85,6.44,5.15,8.95c2.3,2.52,5.08,4.46,8.33,5.83,3.26,1.36,6.76,2.05,10.51,2.05,2.18,0,4.3-.24,6.34-.71,2.05-.47,3.96-1.13,5.74-1.99,1.77-.85,3.22-1.74,4.36-2.66,1.13-.92,2.45-2.12,3.97-3.6l-.33,7.43c4.45-.07,8.24-.11,11.36-.11,2.77,0,6.24,.04,10.42,.11,0-8.27,.43-20.75,1.29-37.45,.85-16.7,1.84-30.85,2.97-42.44-4.01,.08-7.99,.12-11.92,.12Zm-14.04,48.61c-.41,3.22-1.18,6-2.29,8.34-1.11,2.34-2.56,4.12-4.34,5.32-1.78,1.21-3.74,1.82-5.89,1.82s-3.89-.53-5.55-1.58c-1.66-1.06-2.89-2.49-3.69-4.3-.8-1.82-1.2-3.86-1.2-6.12,0-3,.71-6.06,2.14-9.16,1.42-3.1,3.47-5.38,6.13-6.85,2.65-1.46,5.88-2.19,9.67-2.19,1.84,0,3.8,.23,5.87,.7-.16,6.13-.44,10.8-.85,14.02Z"/>
      <path class="cls-6" d="M632.79,106.06c.5-2.73,.76-5.21,.76-7.43,0-3.75-.6-7.24-1.79-10.48-1.19-3.24-3.19-6.14-6-8.72-2.81-2.57-6.23-4.38-10.27-5.41-4.04-1.04-8.28-1.55-12.73-1.55s-8.48,.56-12.58,1.69-7.72,3.04-10.86,5.73-5.7,6.42-7.69,11.2c-1.99,4.77-2.99,9.66-2.99,14.65,0,3.54,.5,6.99,1.49,10.35,1,3.35,2.45,6.24,4.36,8.68,1.92,2.44,4.29,4.47,7.12,6.11,2.82,1.64,6.19,2.78,10.09,3.42,3.9,.64,8.18,.97,12.82,.97,3.16,0,6.28-.15,9.36-.44,3.09-.3,6.89-.89,11.42-1.79,1.44-8.97,2.41-14.63,2.92-16.97-4.84,1.44-8.9,2.47-12.2,3.07-3.3,.61-6.23,.91-8.81,.91-4.33,0-8-.99-11-2.97-3.01-1.99-4.51-5.07-4.51-9.27,0-.51,.02-1.07,.06-1.69l41.03-.06Zm-39.74-12.55c.27-.88,.7-1.79,1.29-2.72,.58-.94,1.31-1.77,2.19-2.49,.88-.72,1.86-1.27,2.96-1.64,1.09-.37,2.22-.56,3.39-.56,1.68,0,3.19,.33,4.54,1,1.34,.66,2.38,1.72,3.1,3.16,.72,1.44,1.08,3.18,1.08,5.21,0,.47-.02,1.03-.06,1.69h-19.31c.27-1.56,.54-2.78,.82-3.65Z"/>
      <path class="cls-2" d="M696.65,74.1c-3.74,0-7.72-.04-11.93-.12l-9.3,25.81c-1.6,4.41-2.51,6.91-2.75,7.49l-1.52,4.86c-2.34-9.29-4.49-17.29-6.44-24.03-1.95-6.73-3.26-11.44-3.92-14.13-3.52,.08-7.26,.12-11.25,.12s-7.97-.04-12.42-.12l14,40.56,6.21,19.2c4.76-.08,9.05-.12,12.88-.12,3.51,0,7.57,.04,12.17,.12l3.22-7.84,15.03-34.53,8.07-17.38c-4.17,.08-8.19,.12-12.05,.12Z"/>
      <path class="cls-7" d="M259.3,179.46c2.32-1.19,5.02-1.79,8.11-1.79,4.29,0,9.23,.98,14.81,2.93l-.35-5.21c-.2-3.16-.32-5.47-.38-6.94-.06-1.46-.15-2.9-.26-4.3l-.12-1.35c-4.14-.98-7.61-1.61-10.42-1.9-2.81-.29-5.6-.44-8.37-.44-4.72,0-9.03,.5-12.93,1.49-3.9,1-7.45,2.95-10.65,5.85-3.2,2.91-5.62,6.6-7.26,11.09-1.64,4.49-2.46,9.15-2.46,13.99,0,5.27,.84,10.03,2.52,14.28,1.4,3.63,3.65,6.77,6.73,9.42,3,2.58,6.4,4.37,10.18,5.38,3.2,.86,6.93,1.29,11.18,1.29,5.85,0,11.84-.74,17.97-2.22l1.52-9.36c.74-4.17,1.21-7.04,1.41-8.6-2.07,.78-3.78,1.34-5.12,1.67-1.35,.33-2.93,.63-4.74,.91-1.81,.27-3.38,.41-4.71,.41-2.62,0-5.01-.51-7.2-1.52-2.19-1.01-3.77-2.54-4.77-4.56-1-2.03-1.49-4.54-1.49-7.55s.56-5.57,1.67-7.81c1.11-2.24,2.83-3.96,5.15-5.15Z"/>
      <path class="cls-12" d="M340.74,162.02c-3.82-1.03-8.04-1.55-12.64-1.55-8.08,0-17.74,1.23-28.97,3.69-.43,3.12-.74,5.41-.94,6.88-.2,1.46-.66,4.13-1.4,7.99,9.87-3.78,18.15-5.68,24.86-5.68,2.42,0,4.25,.4,5.5,1.2,1.25,.8,1.87,1.94,1.87,3.42,0,.55-.1,1.06-.29,1.55-.2,.49-.52,.96-.97,1.4-.45,.45-1.03,.84-1.75,1.17-.72,.33-1.93,.72-3.63,1.17-1.7,.45-3.56,.87-5.59,1.26-4.88,.94-8.9,1.93-12.08,2.98-3.18,1.05-5.69,2.18-7.52,3.37-1.83,1.19-3.43,2.62-4.8,4.3-1.37,1.68-2.37,3.39-3.01,5.15-.64,1.76-.96,3.55-.96,5.38,0,3,.87,6.01,2.6,9.01,1.74,3.01,4.21,5.18,7.43,6.53,3.22,1.35,7.25,2.02,12.08,2.02,3,0,6.18-.27,9.54-.82,1.56-5.77,2.91-10.16,4.04-13.17-1.64,.55-2.93,.89-3.86,1.02-.94,.14-1.81,.2-2.63,.2-2.3,0-3.98-.47-5.03-1.4-1.05-.94-1.58-2.07-1.58-3.39,0-.86,.18-1.64,.55-2.34,.37-.7,.99-1.38,1.87-2.05,.88-.66,1.91-1.21,3.09-1.64,1.19-.43,2.83-.96,4.93-1.58,2.1-.62,3.57-1.09,4.41-1.4,.84-.31,1.99-.82,3.47-1.52-.65,13.42-1.24,22.28-1.77,26.57,4.14-.08,8.04-.12,11.71-.12s7.59,.04,11.42,.12c.31-12.41,.76-22.43,1.34-30.08,.58-7.65,.88-12.56,.88-14.75,0-4.29-1.07-7.59-3.22-9.89-2.15-2.3-5.13-3.97-8.96-5Z"/>
      <path class="cls-8" d="M391.51,177.1c1.38-.63,3.62-.95,6.7-.95,4.37,0,8.92,.94,13.64,2.81l-.94-16.39c-8.43-1.4-15.35-2.11-20.78-2.11s-9.59,.63-13.2,1.9c-3.61,1.27-6.34,3.31-8.19,6.12-1.85,2.81-2.78,5.83-2.78,9.07,0,1.83,.32,3.61,.96,5.33,.64,1.72,1.58,3.32,2.8,4.8,1.23,1.48,3.05,3.18,5.49,5.09,2.43,1.91,5.24,4.04,8.43,6.38,1.44,1.05,2.36,1.88,2.77,2.49,.41,.61,.61,1.22,.61,1.84,0,.7-.27,1.39-.82,2.05-.54,.66-1.41,1.17-2.6,1.52-1.19,.35-2.73,.53-4.64,.53-2.3,0-4.81-.36-7.53-1.08-2.73-.72-5.98-1.82-9.75-3.31l.47,4.21c.35,3.32,.6,5.92,.76,7.81,.16,1.89,.31,3.7,.47,5.41,4.53,.98,8.5,1.66,11.91,2.05,3.41,.39,6.25,.58,8.52,.58,3.35,0,6.61-.3,9.77-.91,3.16-.61,6.1-1.69,8.81-3.25,2.71-1.56,4.74-3.5,6.09-5.82,1.35-2.32,2.02-4.87,2.02-7.64,0-1.83-.3-3.58-.91-5.24-.6-1.66-1.48-3.22-2.63-4.68-1.15-1.46-2.82-3.05-5-4.77-1.33-1.05-3.16-2.4-5.5-4.04-2.34-1.64-3.81-2.68-4.42-3.13-.61-.45-1.11-.89-1.52-1.32-.41-.43-.69-.84-.85-1.23-.16-.39-.23-.8-.23-1.23,0-1.31,.69-2.28,2.08-2.91Z"/>
      <path class="cls-4" d="M451.58,178.96h13.47c0-2.61,.16-7.98,.47-16.09h-13.35c.12-5.89,.31-11.39,.59-16.5-5.98,1.44-9.88,2.34-11.72,2.69l-10.02,2.05c-.35,6.05-.64,9.97-.87,11.76h-9.7l-.18,5.44c-.16,4.41-.33,7.96-.53,10.65h9.12l-1.28,20.25c-.23,3.43-.37,5.65-.41,6.64-.04,1-.06,1.69-.06,2.08,0,2.19,.31,4.25,.94,6.2,.62,1.95,1.79,3.68,3.51,5.18s3.86,2.54,6.44,3.1c2.58,.56,5.52,.85,8.84,.85,2.03,0,4.13-.12,6.29-.35,2.17-.23,5.18-.78,9.04-1.64l1.29-7.14c.51-3.12,1.11-6.32,1.81-9.6-2.58,.7-4.37,1.12-5.39,1.26-1.02,.14-1.99,.21-2.93,.21-1.25,0-2.39-.27-3.43-.82-1.03-.55-1.76-1.44-2.17-2.69-.41-1.25-.61-2.81-.61-4.68,0-.62,.04-2.03,.12-4.21l.71-14.63Z"/>
      <path class="cls-3" d="M517.2,161.05c-1.72-.39-3.28-.59-4.68-.59-1.48,0-2.91,.17-4.27,.5-1.37,.33-2.67,.84-3.92,1.52-1.25,.68-2.36,1.44-3.34,2.28-.98,.84-2.23,2.12-3.75,3.83l.24-6.61c-4.21,.08-7.94,.12-11.18,.12-2.77,0-6.52-.04-11.24-.12,.08,4.21,.12,7.75,.12,10.59s-.02,5.56-.06,8.25l-.58,14.92-1.81,25.99c4.33-.08,8.39-.12,12.18-.12s7.63,.04,11.42,.12c-.16-3-.23-5.52-.23-7.55,0-5.77,.16-10.91,.47-15.39,.31-4.49,.86-7.76,1.64-9.83,.78-2.07,1.82-3.79,3.13-5.18,1.31-1.38,2.81-2.42,4.5-3.1,1.7-.68,3.71-1.02,6.05-1.02,1.87,0,3.88,.31,6.02,.94l-.41-9.01c-.16-2.77-.25-6.28-.29-10.53Z"/>
      <path class="cls-13" d="M591.21,178.87c-1.47-3.72-3.74-6.98-6.82-9.77-3.09-2.79-6.86-4.93-11.33-6.41-4.47-1.48-9.12-2.22-13.96-2.22-5.19,0-10.18,.83-14.98,2.48-4.8,1.66-8.83,4.03-12.09,7.11-3.25,3.09-5.63,6.56-7.14,10.42-1.5,3.87-2.25,7.92-2.25,12.18s.77,8.31,2.31,12.17c1.54,3.86,3.85,7.18,6.91,9.95,3.06,2.77,6.88,4.88,11.44,6.32,4.57,1.44,9.33,2.16,14.28,2.16,5.39,0,10.49-.81,15.31-2.45,4.81-1.64,8.78-4.11,11.91-7.41,3.12-3.29,5.33-6.82,6.64-10.59,1.31-3.76,1.96-7.73,1.96-11.91s-.73-8.3-2.19-12.03Zm-22.77,20.02c-1,2.55-2.47,4.49-4.42,5.79-1.95,1.31-4.16,1.96-6.61,1.96-3.24,0-5.93-1.14-8.08-3.42-2.15-2.28-3.22-5.57-3.22-9.86,0-2.93,.5-5.63,1.49-8.11,1-2.47,2.47-4.36,4.42-5.65,1.95-1.28,4.18-1.93,6.67-1.93s4.46,.59,6.24,1.76c1.77,1.17,3.05,2.73,3.83,4.68,.78,1.95,1.17,4.14,1.17,6.56,0,2.92-.5,5.66-1.49,8.22Z"/>
    </g>
  </g>
</svg>