<?xml version="1.0" encoding="UTF-8"?>
<svg id="Layer_2" data-name="Layer 2" xmlns="http://www.w3.org/2000/svg" viewBox="0 0 574.14 107.44">
  <defs>
    <style>
      .cls-1 {
        fill: #fff;
      }
    </style>
  </defs>
  <g id="Layer_1-2" data-name="Layer 1">
    <path class="cls-1" d="M10.61,94.88C3.54,86.51,0,75.03,0,60.43c0-11.37,1.86-21.62,5.57-30.75C9.29,20.55,14.88,13.32,22.36,7.99,29.84,2.67,38.9,0,49.56,0c13.25,0,22.78,3.58,28.61,10.74,5.82,7.16,8.73,16.74,8.73,28.74,0,10.03-1.39,18.18-4.16,24.44-2.78,6.27-6.16,10.77-10.14,13.5-3.98,2.73-7.95,4.1-11.89,4.1-7.25,0-11.15-2.96-11.68-8.86h-.27c-1.34,2.78-3.04,4.81-5.1,6.11-2.06,1.3-4.57,1.95-7.52,1.95-4.03,0-7.14-1.41-9.33-4.23-2.19-2.82-3.29-6.78-3.29-11.89,0-1.07,.09-2.6,.27-4.57l1.48-13.56c1.52-13.25,6.89-19.88,16.12-19.88,5.55,0,9.22,2.73,11.01,8.19h.27l1.21-7.65h12.49l-3.89,37.47-.13,2.15c0,1.7,.89,2.55,2.69,2.55,3.49,0,6.15-3.07,7.99-9.2,1.83-6.13,2.75-12.91,2.75-20.35,0-8.77-2.19-15.69-6.58-20.75-4.39-5.06-11.1-7.59-20.14-7.59-11.82,0-20.84,4.39-27.06,13.16-6.22,8.78-9.33,20.95-9.33,36.53,0,11.1,2.62,19.72,7.86,25.85,5.24,6.13,13.05,9.2,23.44,9.2,5.37,0,10.23-.67,14.57-2.01,4.34-1.34,8.75-3.71,13.23-7.12l-1.07,12.89c-4.21,2.77-8.51,4.72-12.89,5.84-4.39,1.12-9.27,1.68-14.64,1.68-14.59,0-25.43-4.19-32.5-12.56ZM50.09,59.76l1.34-12.76,.13-1.61c0-1.97-.54-3.45-1.61-4.43-1.07-.98-2.51-1.48-4.3-1.48-2.24,0-3.98,.65-5.24,1.95-1.25,1.3-2.06,3.47-2.42,6.51l-1.21,11.42-.13,2.01c0,2.33,.51,4.05,1.54,5.17,1.03,1.12,2.48,1.68,4.36,1.68,4.39,0,6.89-2.82,7.52-8.46Z"/>
    <g>
      <path class="cls-1" d="M100.22,32.88l4.3,24.79,9.25-15.79h7.19l9.25,15.79,4.3-24.79h7.62l-6.47,37.44h-6.69l-11.6-19.62-11.64,19.62h-6.69l-6.5-37.44h7.66Z"/>
      <path class="cls-1" d="M148.64,40.61c0-2.14,.78-3.97,2.35-5.47,1.57-1.51,3.45-2.26,5.64-2.26h15.61c2,0,3.81,.49,5.44,1.46,1.63,.98,2.93,2.29,3.9,3.94,.98,1.65,1.46,3.48,1.46,5.48v1.05c0,1.98-.49,3.78-1.46,5.4-.98,1.63-2.28,2.93-3.9,3.9-1.63,.98-3.44,1.46-5.44,1.46h-11.64v-7.59h11.71c.87,0,1.61-.31,2.22-.94,.61-.63,.92-1.38,.92-2.28v-1.01c0-.92-.31-1.69-.92-2.31-.61-.63-1.36-.94-2.22-.94h-16.05v19.23c0,.82,.28,1.52,.83,2.1,.55,.58,1.23,.87,2.02,.87h21.29v7.62h-21.29c-1.93,0-3.69-.48-5.28-1.43-1.59-.95-2.85-2.23-3.79-3.83s-1.41-3.37-1.41-5.29v-19.15Z"/>
      <path class="cls-1" d="M191,18.93h7.62V62.69h13.26c1.64,0,3.03-.58,4.17-1.73,1.14-1.16,1.72-2.54,1.72-4.16v-10.34c0-1.64-.57-3.04-1.72-4.21-1.14-1.17-2.54-1.75-4.17-1.75h-8.93v-7.62h8.93c2.48,0,4.75,.61,6.79,1.83,2.05,1.22,3.68,2.85,4.9,4.9,1.22,2.05,1.83,4.31,1.83,6.79v10.48c0,2.46-.61,4.7-1.83,6.74-1.22,2.04-2.85,3.66-4.9,4.88-2.05,1.22-4.31,1.83-6.79,1.83h-13.26c-2.1,0-3.89-.75-5.38-2.24s-2.24-3.29-2.24-5.38V18.93Z"/>
      <path class="cls-1" d="M233.71,46.39c0-2.48,.61-4.75,1.83-6.79,1.22-2.05,2.85-3.68,4.9-4.9,2.05-1.22,4.31-1.83,6.79-1.83h8.93v7.62h-8.93c-1.61,0-3,.58-4.16,1.75-1.16,1.17-1.73,2.57-1.73,4.21v10.34c0,1.61,.58,3,1.73,4.16,1.16,1.16,2.54,1.73,4.16,1.73h13.26V18.93h7.62V62.69c0,2.1-.75,3.89-2.24,5.38-1.49,1.49-3.29,2.24-5.38,2.24h-13.26c-2.48,0-4.75-.61-6.79-1.83-2.05-1.22-3.68-2.84-4.9-4.88-1.22-2.04-1.83-4.28-1.83-6.74v-10.48Z"/>
      <path class="cls-1" d="M276.79,40.61c0-2.14,.78-3.97,2.35-5.47,1.57-1.51,3.45-2.26,5.64-2.26h15.61c2,0,3.81,.49,5.44,1.46s2.93,2.29,3.9,3.94c.98,1.65,1.46,3.48,1.46,5.48v1.05c0,1.98-.49,3.78-1.46,5.4-.98,1.63-2.28,2.93-3.9,3.9s-3.44,1.46-5.44,1.46h-11.64v-7.59h11.71c.87,0,1.61-.31,2.22-.94,.61-.63,.92-1.38,.92-2.28v-1.01c0-.92-.31-1.69-.92-2.31-.61-.63-1.35-.94-2.22-.94h-16.04v19.23c0,.82,.28,1.52,.83,2.1,.55,.58,1.23,.87,2.02,.87h21.29v7.62h-21.29c-1.93,0-3.69-.48-5.28-1.43-1.59-.95-2.86-2.23-3.79-3.83s-1.41-3.37-1.41-5.29v-19.15Z"/>
      <path class="cls-1" d="M323.92,32.88l10.01,26.42,9.94-26.42h8.02l-14.27,37.44h-7.48l-14.24-37.44h8.02Z"/>
      <path class="cls-1" d="M356.22,46.39c0-2.48,.63-4.75,1.88-6.79,1.25-2.05,2.93-3.68,5.02-4.9,2.1-1.22,4.42-1.83,6.97-1.83h21.07v7.62h-21.07c-1.71,0-3.18,.58-4.41,1.75-1.23,1.17-1.84,2.58-1.84,4.25v10.16c0,1.66,.61,3.08,1.83,4.26,1.22,1.18,2.69,1.77,4.43,1.77h21.07v7.62h-21.07c-2.55,0-4.88-.61-6.97-1.84-2.1-1.23-3.77-2.87-5.02-4.93-1.25-2.06-1.88-4.33-1.88-6.81v-10.34Z"/>
      <path class="cls-1" d="M399.12,46.32c0-2.48,.61-4.73,1.82-6.76s2.85-3.64,4.9-4.86c2.05-1.22,4.31-1.83,6.79-1.83h20.89v37.44h-7.62v-29.81h-13.26c-1.61,0-3,.57-4.16,1.72-1.16,1.14-1.73,2.54-1.73,4.17v10.34c0,1.64,.58,3.04,1.73,4.21,1.16,1.17,2.54,1.75,4.16,1.75h8.93v7.62h-8.93c-2.48,0-4.75-.61-6.79-1.83-2.05-1.22-3.68-2.85-4.9-4.9s-1.82-4.31-1.82-6.79v-10.48Z"/>
      <path class="cls-1" d="M441.84,43.39c0-1.95,.49-3.72,1.46-5.31,.98-1.59,2.28-2.86,3.9-3.79s3.43-1.41,5.4-1.41h21.97v7.62h-21.97c-.87,0-1.61,.28-2.22,.85-.61,.57-.92,1.25-.92,2.04v.9c0,.82,.31,1.52,.92,2.1,.62,.58,1.36,.87,2.22,.87h13.66c1.97,0,3.78,.48,5.4,1.43,1.63,.95,2.92,2.22,3.88,3.81,.96,1.59,1.45,3.36,1.45,5.31v1.95c0,1.93-.48,3.69-1.45,5.29-.96,1.6-2.26,2.88-3.88,3.83-1.63,.95-3.43,1.43-5.4,1.43h-22.73v-7.62h22.73c.87,0,1.61-.29,2.22-.87s.92-1.28,.92-2.1v-1.88c0-.84-.31-1.55-.92-2.13s-1.35-.87-2.22-.87h-13.66c-1.98,0-3.78-.48-5.4-1.43-1.63-.95-2.93-2.23-3.9-3.83-.98-1.6-1.46-3.37-1.46-5.29v-.9Z"/>
      <path class="cls-1" d="M483.14,32.88h4.88v-13.95h7.62v13.95h11.53v7.62h-11.53v19.19c0,.82,.32,1.52,.96,2.11,.64,.59,1.4,.89,2.29,.89h8.28v7.62h-8.38c-1.98,0-3.78-.48-5.4-1.43-1.63-.95-2.93-2.23-3.9-3.83s-1.46-3.38-1.46-5.33v-19.23h-4.88v-7.62Z"/>
      <path class="cls-1" d="M514.04,43.36c0-1.93,.49-3.69,1.46-5.28,.98-1.59,2.28-2.86,3.9-3.79s3.43-1.41,5.4-1.41h8.35v7.59h-8.35c-.87,0-1.61,.3-2.22,.89-.62,.59-.92,1.31-.92,2.15v26.81h-7.62v-26.96Z"/>
      <path class="cls-1" d="M538.94,46.39c0-2.48,.61-4.75,1.82-6.79s2.85-3.68,4.9-4.9c2.05-1.22,4.31-1.83,6.79-1.83h8.17c2.48,0,4.75,.61,6.79,1.83s3.68,2.85,4.9,4.9,1.83,4.31,1.83,6.79v10.41c0,2.48-.61,4.75-1.83,6.79s-2.85,3.68-4.9,4.9c-2.05,1.22-4.31,1.83-6.79,1.83h-8.17c-2.48,0-4.75-.61-6.79-1.83-2.05-1.22-3.68-2.85-4.9-4.9s-1.82-4.31-1.82-6.79v-10.41Zm7.62,10.34c0,1.64,.58,3.04,1.73,4.21,1.16,1.17,2.54,1.75,4.16,1.75h8.17c1.64,0,3.03-.58,4.17-1.75,1.14-1.17,1.72-2.57,1.72-4.21v-10.26c0-1.64-.57-3.04-1.72-4.21-1.14-1.17-2.54-1.75-4.17-1.75h-8.17c-1.61,0-3,.58-4.16,1.75-1.16,1.17-1.73,2.57-1.73,4.21v10.26Z"/>
    </g>
  </g>
</svg>